<svg xmlns="http://www.w3.org/2000/svg" viewBox="0 0 182 33" fill="#FFF"><path d="M112.16 15.72c3.66-.83 6.02-3.47 6.02-7.51 0-4.91-3.2-8.2-9.82-8.2h-10.7v32.44h11.07c6.9 0 10.61-3.24 10.61-8.76 0-4.41-2.64-7.23-7.18-7.97zM99.7 1.68h8.62c5.24 0 7.74 2.55 7.74 6.67s-2.5 6.63-7.74 6.63H99.7V1.68zm8.94 29.1H99.7V16.64h8.94c5.79 0 8.57 2.64 8.57 7.04 0 4.45-2.78 7.1-8.57 7.1zm22.33-21.41c-4.26 0-7.32 2.36-8.43 5.79l1.76.56c1.16-3.2 3.57-4.77 6.67-4.77 3.89 0 6.12 1.85 6.12 6.72v1.3l-2.97.14c-9.96.32-12.79 3.43-12.79 7.37 0 4.03 3.24 6.53 7.55 6.53 3.8 0 6.72-1.81 8.2-5.05v4.5h1.95V18.13c.01-6.07-2.96-8.76-8.06-8.76zm6.12 14.32c0 4.31-3.06 7.74-7.97 7.74-3.43 0-5.79-1.99-5.79-4.96 0-3.15 2.18-5.65 10.89-5.93l2.87-.09v3.24zm16.08-14.32c-4.12 0-7.18 2.64-8.57 6.3V9.92h-1.99v22.52h1.99v-11.3c0-5.98 3.34-10.1 8.2-10.1 3.8 0 5.75 2.27 5.75 6.72v14.69h1.99V17.34c0-4.82-2.6-7.97-7.37-7.97zm19.33 9.4l8.1-8.85h-2.4l-12.1 13.35V.01h-1.99v32.43h1.99v-6.76l5.1-5.52 8.43 12.28h2.27M63.24 8.75h1.98s-.02-7.09 6.46-7.09h1.97v29.12h-3.1c-1.98-.19-3.63-1.47-5.22-2.98L63 25.55c.51-.69 1.18-1.73 1.66-2.82.54-1.23.93-3.55 1.17-4.13.08-.19.17-.37.28-.54.31-.48.82-.89 1.35-1.12.4-.17.89-.29 1.33-.29h.3v-1.68h-9.71v1.68h.66c1.77.01 3.21 1.44 3.21 3.24 0 2.31-1.73 4.21-1.73 4.21l-8.88-8.62c3.96-1.44 7.3-3.42 7.3-7.15 0-3.92-2.99-6.68-8.39-6.68-5.48 0-9.13 3.03-9.13 7.92 0 3.22 1.48 5.32 2.91 6.76-4.5 1.75-7.18 4.04-7.18 8.23 0 5.9 5.32 8.27 11.23 8.27 3.88 0 7.15-1.17 9.67-3.03.04-.03 1.68 2.64 6.52 2.64L84 32.43v-1.66h-3.55V1.65h1.97c6.46 0 6.46 7.09 6.46 7.09h1.98V.01H63.24v8.74zM51.35 3.31c2.14 0 3.46 1.72 3.46 4.17 0 2.72-1.21 5.06-3.81 6.46-1.67-1.63-3.11-3.85-3.11-6.53 0-2.42 1.32-4.1 3.46-4.1zm-.2 26.71c-3.84 0-6.72-2.84-6.72-6.65 0-2.68.62-4.31 2.41-5.47l10.72 10.52c-1.75 1.21-4 1.6-6.41 1.6zM34.85 1.66h3.84V0H28.34s-8.56 21.39-8.84 22.08C19.23 21.39 10.62 0 10.62 0H0v1.66h3.84v29.12H.66v1.66h9.37v-1.66H5.87V5.38c.49 1.23 10.44 26.33 10.44 26.33h1.68s9.82-25.09 10.3-26.33l-.01 25.41h-3.26v1.65h13.12v-1.65h-3.28V1.66z"/></svg>