<svg width="42" height="46" viewBox="0 0 42 46" fill="none" xmlns="http://www.w3.org/2000/svg">
<rect width="42" height="4.72662" fill="white"/>
<rect y="12.0314" width="42" height="4.72662" fill="white"/>
<rect y="23.2034" width="42" height="4.72662" fill="white"/>
<path d="M8.86386 43.1081V35.5241L11.6959 43.1081H12.4399L15.2839 35.5121V43.1081H16.0399V34.7081H14.8879L12.0919 42.2441L9.28386 34.7081H8.14386V43.1081H8.86386ZM20.1758 43.2761C21.1238 43.2761 22.1438 42.7601 22.6358 41.6441L22.0118 41.3801C21.5198 42.3281 20.8958 42.7001 20.1878 42.7001C18.9638 42.7001 18.1718 41.6921 18.1718 40.2521V40.1921H22.7078V40.0601C22.7078 38.2361 21.8078 37.0721 20.1398 37.0721C18.4838 37.0721 17.4158 38.3561 17.4158 40.1441V40.1921C17.4158 42.0281 18.4958 43.2761 20.1758 43.2761ZM20.1398 37.6361C21.2558 37.6361 21.8678 38.3801 21.9518 39.6521H18.1958C18.3638 38.4521 19.1078 37.6361 20.1398 37.6361ZM24.6811 43.1081V40.1321C24.6811 38.6681 25.4731 37.6721 26.6851 37.6721C27.6211 37.6721 28.0651 38.2241 28.0651 39.3281V43.1081H28.7971V39.1721C28.7971 37.9721 28.1491 37.0721 26.8291 37.0721C25.8571 37.0721 25.0771 37.6601 24.6811 38.5961V37.2401H23.9491V43.1081H24.6811ZM34.2626 43.1081H34.9946V37.2401H34.2626V40.2041C34.2626 41.6801 33.4706 42.6761 32.2586 42.6761C31.3226 42.6761 30.8786 42.1241 30.8786 41.0081V37.2401H30.1466V41.1761C30.1466 42.3761 30.7946 43.2761 32.1146 43.2761C33.0866 43.2761 33.8666 42.6881 34.2626 41.7521V43.1081Z" fill="white"/>
</svg>
